<svg width="110" height="110" viewBox="0 0 110 110" fill="none" xmlns="http://www.w3.org/2000/svg">
<path d="M90.8504 33.8119L95.1632 29.4991C96.8391 27.8231 96.8391 25.1057 95.1632 23.4306C93.4872 21.7546 90.7706 21.7546 89.0947 23.4306L84.7819 27.7434C77.546 21.7143 68.7534 18.0721 59.3741 17.2194V8.58284H63.5224C65.8924 8.58284 67.8134 6.661 67.8134 4.291C67.8134 1.92101 65.8924 0 63.5224 0H46.6429C44.2729 0 42.3519 1.92101 42.3519 4.291C42.3519 6.661 44.2729 8.58284 46.6429 8.58284H50.7912V17.2194C27.3128 19.3544 8.59375 39.0781 8.59375 63.5107C8.59375 89.2046 29.3858 110 55.0831 110C80.7762 110 101.572 89.208 101.572 63.5107C101.572 52.5352 97.7917 42.1413 90.8504 33.8119ZM55.0822 101.417C34.1811 101.417 17.1757 84.4126 17.1757 63.5107C17.1757 42.6096 34.1811 25.605 55.0822 25.605C75.9842 25.605 92.9887 42.6096 92.9887 63.5107C92.9887 84.4126 75.9842 101.417 55.0822 101.417ZM74.9696 43.6242C76.6455 45.3001 76.6455 48.0176 74.9696 49.6927L58.1169 66.5453C56.441 68.2213 53.7235 68.2213 52.0484 66.5453C50.3725 64.8694 50.3725 62.1519 52.0484 60.4768L68.9002 43.6242C70.5762 41.9482 73.2936 41.9482 74.9696 43.6242Z" fill="black"/>
</svg>
